# xmcd
#
# Track frame offsets:
#	150
#	13508
#	26681
#	40893
#	54546
#	68496
#	81876
#	95203
#	108453
#	121340
#	134998
#	146610
#	154767
#	169192
#	182837
#	196657
#	211282
#	225922
#	238870
#	251760
#
# Disc length: 3493 seconds
#
# Revision: 1
# Processed by: cddbd v1.5.2PL0 Copyright (c) Steve Scherf et al.
# Submitted via: audiograbber 1.83.01
#
DISCID=1a0da314
DTITLE=Billie Holiday - Legends The Collection
DYEAR=1900
DGENRE=
TTITLE0=My Man
TTITLE1=God Bless The Child
TTITLE2=Billie's Blues
TTITLE3=What A Little Moonlight Can Do
TTITLE4=Twenty Four Hours A Day
TTITLE5=I Wish I Had You
TTITLE6=Spreadin' Rhythm Around
TTITLE7=You're Gonna See A Lot Of Me
TTITLE8=Let's Dream In The Moonlight
TTITLE9=Let's Call A Heart A Heart
TTITLE10=Lover Man
TTITLE11=Swing Brother Swing
TTITLE12=Strange Fruit
TTITLE13=Georgia On My Mind
TTITLE14=Miss Brown To You
TTITLE15=If You Were Mine
TTITLE16=These 'n' That 'n' Those
TTITLE17=I'll Never Fail You
TTITLE18=You're So Desirable
TTITLE19=Please Keep Me In Your Dreams
EXTD=
EXTT0=
EXTT1=
EXTT2=
EXTT3=
EXTT4=
EXTT5=
EXTT6=
EXTT7=
EXTT8=
EXTT9=
EXTT10=
EXTT11=
EXTT12=
EXTT13=
EXTT14=
EXTT15=
EXTT16=
EXTT17=
EXTT18=
EXTT19=
PLAYORDER=
